<svg xmlns="http://www.w3.org/2000/svg" style="display:none" aria-hidden="true">
  <symbol id="i-email" viewBox="0 0 24 24"><path fill="currentColor" d="M2 4h20a2 2 0 0 1 2 2v12a2 2 0 0 1-2 2H2a2 2 0 0 1-2-2V6a2 2 0 0 1 2-2zm10 9.586L3.293 6H20.707L12 13.586zM2 7.414V18h20V7.414L12 16 2 7.414z"/></symbol>
  <symbol id="i-linkedin" viewBox="0 0 24 24"><path fill="currentColor" d="M19 0h-14c-2.761 0-5 2.239-5 5v14c0 2.761 2.239 5 5 5h14c2.762 0 5-2.239 5-5V5c0-2.761-2.238-5-5-5zM8 19H5V8h3v11zM6.5 6.732c-.966 0-1.75-.79-1.75-1.764S5.534 3.204 6.5 3.204c.965 0 1.75.79 1.75 1.764s-.785 1.764-1.75 1.764zM20 19h-3v-5.604c0-3.368-4-3.113-4 0V19h-3V8h3v1.765c1.396-2.586 7-2.777 7 2.476V19z"/></symbol>
  <symbol id="i-scholar" viewBox="0 0 24 24"><path fill="currentColor" d="M12 0L0 9.5l4.838 3.94A8 8 0 0 1 12 8.5a8 8 0 0 1 7.162 4.94L24 9.5 12 0zM12 10a6 6 0 1 0 0 12 6 6 0 0 0 0-12z"/></symbol>
  <symbol id="i-github" viewBox="0 0 24 24"><path fill="currentColor" d="M12 0C5.37 0 0 5.37 0 12c0 5.31 3.435 9.795 8.205 11.385.6.105.825-.255.825-.57 0-.285-.015-1.23-.015-2.235-3.015.555-3.795-.735-4.035-1.41-.135-.345-.72-1.41-1.23-1.695-.42-.225-1.02-.78-.015-.795.945-.015 1.62.87 1.845 1.23 1.08 1.815 2.805 1.305 3.495.99.105-.78.42-1.305.765-1.605-2.67-.3-5.46-1.335-5.46-5.925 0-1.305.465-2.385 1.23-3.225-.12-.3-.54-1.53.12-3.18 0 0 1.005-.315 3.3 1.23.96-.27 1.98-.405 3-.405s2.04.135 3 .405c2.295-1.56 3.3-1.23 3.3-1.23.66 1.65.24 2.88.12 3.18.765.84 1.23 1.905 1.23 3.225 0 4.605-2.805 5.625-5.475 5.925.435.375.81 1.095.81 2.22 0 1.605-.015 2.895-.015 3.3 0 .315.225.69.825.57A12.02 12.02 0 0 0 24 12c0-6.63-5.37-12-12-12z"/></symbol>
  <symbol id="i-sun" viewBox="0 0 24 24"><path fill="currentColor" d="M12 7a5 5 0 1 0 0 10 5 5 0 0 0 0-10zm0-5a1 1 0 0 1 1 1v2a1 1 0 0 1-2 0V3a1 1 0 0 1 1-1zm0 18a1 1 0 0 1 1 1v2a1 1 0 0 1-2 0v-2a1 1 0 0 1 1-1zm10-9a1 1 0 0 1-1 1h-2a1 1 0 0 1 0-2h2a1 1 0 0 1 1 1zM5 12a1 1 0 0 1-1 1H2a1 1 0 0 1 0-2h2a1 1 0 0 1 1 1zm14.07-7.07a1 1 0 0 1 0 1.41l-1.41 1.42a1 1 0 1 1-1.42-1.42l1.42-1.41a1 1 0 0 1 1.41 0zM7.76 16.24a1 1 0 0 1 0 1.42l-1.41 1.41a1 1 0 1 1-1.42-1.41l1.42-1.42a1 1 0 0 1 1.41 0zm11.31 0a1 1 0 0 1 1.41 1.42l-1.41 1.41a1 1 0 1 1-1.42-1.41l1.42-1.42zM7.76 7.76A1 1 0 1 1 6.34 6.34L4.93 4.93a1 1 0 0 1 1.42-1.41L7.76 4.93a1 1 0 0 1 0 1.41z"/></symbol>
  <symbol id="i-moon" viewBox="0 0 24 24"><path fill="currentColor" d="M21.64 13a1 1 0 0 0-1.05-.14 8.05 8.05 0 0 1-3.37.73 8.15 8.15 0 0 1-8.14-8.1 8.59 8.59 0 0 1 .25-2A1 1 0 0 0 8 2.36 10.14 10.14 0 1 0 22 14.05a1 1 0 0 0-.36-1.05z"/></symbol>
  <symbol id="i-auto" viewBox="0 0 24 24"><path fill="none" stroke="currentColor" stroke-width="2" stroke-linecap="round" stroke-linejoin="round" d="M3 5h18v11H3z"/><path fill="none" stroke="currentColor" stroke-width="2" stroke-linecap="round" d="M8 21h8M12 16v5"/></symbol>
  <symbol id="i-arrow-up-right" viewBox="0 0 24 24"><path fill="currentColor" d="M7 17l9.2-9.2M17 17V7H7"/></symbol>
  <symbol id="i-search" viewBox="0 0 24 24"><path fill="none" stroke="currentColor" stroke-width="2" stroke-linecap="round" stroke-linejoin="round" d="M21 21l-4.35-4.35M11 19a8 8 0 1 1 0-16 8 8 0 0 1 0 16z"/></symbol>
  <!-- i-fish and i-lungs paths from Font Awesome Free 6.5.2 (Icons: CC BY 4.0) https://fontawesome.com/license/free -->
  <symbol id="i-fish" viewBox="0 0 576 512"><path fill="currentColor" d="M180.5 141.5C219.7 108.5 272.6 80 336 80s116.3 28.5 155.5 61.5c39.1 33 66.9 72.4 81 99.8c4.7 9.2 4.7 20.1 0 29.3c-14.1 27.4-41.9 66.8-81 99.8C452.3 403.5 399.4 432 336 432s-116.3-28.5-155.5-61.5c-16.2-13.7-30.5-28.5-42.7-43.1L48.1 379.6c-12.5 7.3-28.4 5.3-38.7-4.9S-3 348.7 4.2 336.1L50 256 4.2 175.9c-7.2-12.6-5-28.4 5.3-38.6s26.1-12.2 38.7-4.9l89.7 52.3c12.2-14.6 26.5-29.4 42.7-43.1zM448 256a32 32 0 1 0 -64 0 32 32 0 1 0 64 0z"/></symbol>
  <symbol id="i-lungs" viewBox="0 0 640 512"><path fill="currentColor" d="M320 0c17.7 0 32 14.3 32 32V156.2c-8.5-7.6-19.7-12.2-32-12.2s-23.5 4.6-32 12.2V32c0-17.7 14.3-32 32-32zM444.5 195.5c-16.4-16.4-41.8-18.5-60.5-6.1V165.3C384 127 415 96 453.3 96c21.7 0 42.8 10.2 55.8 28.8c15.4 22.1 44.3 65.4 71 116.9c26.5 50.9 52.4 112.5 59.6 170.3c.2 1.3 .2 2.6 .2 4v7c0 49.1-39.8 89-89 89c-7.3 0-14.5-.9-21.6-2.7l-72.7-18.2c-20.9-5.2-38.7-17.1-51.5-32.9c14 1.5 28.5-3 39.2-13.8l-22.6-22.6 22.6 22.6c18.7-18.7 18.7-49.1 0-67.9c-1.1-1.1-1.4-2-1.5-2.5c-.1-.8-.1-1.8 .4-2.9s1.2-1.9 1.8-2.3c.5-.3 1.3-.8 2.9-.8c26.5 0 48-21.5 48-48s-21.5-48-48-48c-1.6 0-2.4-.4-2.9-.8c-.6-.4-1.3-1.2-1.8-2.3s-.5-2.2-.4-2.9c.1-.6 .4-1.4 1.5-2.5c18.7-18.7 18.7-49.1 0-67.9zM421.8 421.8c-6.2 6.2-16.4 6.2-22.6 0C375.9 398.5 336 415 336 448c0 8.8-7.2 16-16 16s-16-7.2-16-16c0-33-39.9-49.5-63.2-26.2c-6.2 6.2-16.4 6.2-22.6 0s-6.2-16.4 0-22.6C241.5 375.9 225 336 192 336c-8.8 0-16-7.2-16-16s7.2-16 16-16c33 0 49.5-39.9 26.2-63.2c-6.2-6.2-6.2-16.4 0-22.6s16.4-6.2 22.6 0C264.1 241.5 304 225 304 192c0-8.8 7.2-16 16-16s16 7.2 16 16c0 33 39.9 49.5 63.2 26.2c6.2-6.2 16.4-6.2 22.6 0s6.2 16.4 0 22.6C398.5 264.1 415 304 448 304c8.8 0 16 7.2 16 16s-7.2 16-16 16c-33 0-49.5 39.9-26.2 63.2c6.2 6.2 6.2 16.4 0 22.6zM183.3 491.2l-72.7 18.2c-7.1 1.8-14.3 2.7-21.6 2.7c-49.1 0-89-39.8-89-89v-7c0-1.3 .1-2.7 .2-4c7.2-57.9 33.1-119.4 59.6-170.3c26.8-51.5 55.6-94.8 71-116.9c13-18.6 34-28.8 55.8-28.8C225 96 256 127 256 165.3v24.1c-18.6-12.4-44-10.3-60.5 6.1c-18.7 18.7-18.7 49.1 0 67.9c1.1 1.1 1.4 2 1.5 2.5c.1 .8 .1 1.8-.4 2.9s-1.2 1.9-1.8 2.3c-.5 .3-1.3 .8-2.9 .8c-26.5 0-48 21.5-48 48s21.5 48 48 48c1.6 0 2.4 .4 2.9 .8c.6 .4 1.3 1.2 1.8 2.3s.5 2.2 .4 2.9c-.1 .6-.4 1.4-1.5 2.5c-18.7 18.7-18.7 49.1 0 67.9c10.7 10.7 25.3 15.3 39.2 13.8c-12.8 15.9-30.6 27.7-51.5 32.9zM296 320a24 24 0 1 0 0-48 24 24 0 1 0 0 48zm72 32a16 16 0 1 0 -32 0 16 16 0 1 0 32 0z"/></symbol>
  <symbol id="i-trophy" viewBox="0 0 24 24"><path fill="currentColor" d="M19 5h-2V3H7v2H5a2 2 0 0 0-2 2v2c0 2.5 2 4.6 4.5 5 .5 1.5 1.7 2.7 3.5 3v2H8v2h8v-2h-3v-2c1.8-.3 3-1.5 3.5-3 2.5-.4 4.5-2.5 4.5-5V7a2 2 0 0 0-2-2zM5 9V7h2v3.8C5.8 10.4 5 9.3 5 9zm14 0c0 .3-.8 1.4-2 1.8V7h2v2z"/></symbol>
  <symbol id="i-star" viewBox="0 0 24 24"><path fill="currentColor" d="M12 17.27L18.18 21l-1.64-7.03L22 9.24l-7.19-.61L12 2 9.19 8.63 2 9.24l5.46 4.73L5.82 21z"/></symbol>
  <symbol id="i-pen" viewBox="0 0 24 24"><path fill="currentColor" d="M14.06 9.02l.92.92L5.92 19H5v-.92l9.06-9.06zM17.66 3a1 1 0 0 0-1.41 0l-1.84 1.84 3.75 3.75 1.84-1.84a1 1 0 0 0 0-1.41l-2.34-2.34zM3 17.25V21h3.75L17.81 9.94l-3.75-3.75L3 17.25z"/></symbol>
</svg>
